<?xml version="1.0" encoding="UTF-8" standalone="no"?>
<!DOCTYPE svg PUBLIC "-//W3C//DTD SVG 1.1//EN" "http://www.w3.org/Graphics/SVG/1.1/DTD/svg11.dtd">
<svg version="1.1" xmlns="http://www.w3.org/2000/svg" xmlns:xlink="http://www.w3.org/1999/xlink" preserveAspectRatio="xMidYMid meet" viewBox="0 0 640 640" width="660" height="660"><defs><path d="M146.63 92.95L520.3 92.95L520.3 532.95L146.63 532.95L146.63 92.95Z" id="geNvaxdkX"></path><path d="M160.21 135.04L211.46 170.11L186.95 170.11L329.02 509.14L476.66 170.11L456.6 170.11L504.52 135.04L476.66 92.95L180.27 92.95L160.21 135.04Z" id="kyVJZrud1"></path><path d="M442.67 90.89L224.27 90.89L329.57 492.05L442.67 90.89Z" id="b1IANgeNo2"></path><path d="M315.5 155.44L282.4 313.75L329.57 492.05L380.15 313.75L349.36 155.44L370.15 90.89L297.02 90.89L315.5 155.44Z" id="b2OAkpvPmW"></path><path d="M288.72 136.7L332.35 86.47L378.83 136.7L442.67 94.89L442.67 57.69L224.27 57.69L224.27 94.89L288.72 136.7Z" id="b4J14IPlp"></path><path d="M429.52 61.55L332.46 90.89L233.18 61.55L429.52 61.55Z" id="c1uLSbfxJJ"></path></defs><g><g><g><use xlink:href="#geNvaxdkX" opacity="1" fill="#1b1b1b" fill-opacity="1"></use></g><g><use xlink:href="#kyVJZrud1" opacity="1" fill="#212121" fill-opacity="1"></use></g><g><use xlink:href="#b1IANgeNo2" opacity="1" fill="#f2f2f2" fill-opacity="1"></use></g><g><use xlink:href="#b2OAkpvPmW" opacity="1" fill="#b00000" fill-opacity="1"></use></g><g><use xlink:href="#b4J14IPlp" opacity="1" fill="#ffffff" fill-opacity="1"></use></g><g><use xlink:href="#c1uLSbfxJJ" opacity="1" fill="#f0f0f0" fill-opacity="1"></use></g></g></g></svg>